mtllib Asset 2.mtl
# Vertex Positions: 
g groupNumber_0
v 2.94438 -5.09981 -1.00063
v 5.88876 0 -1.00063
v 2.94438 5.09981 -1.00063
v -2.94438 5.09981 -1.00063
v -5.88876 0 -1.00063
v -2.94438 -5.09981 -1.00063
v 2.94438 -5.09981 1.00063
v 5.88876 0 1.00063
v 2.94438 5.09981 1.00063
v -2.94438 5.09981 1.00063
v -5.88876 0 1.00063
v -2.94438 -5.09981 1.00063
v 4.41657 -2.54991 0
v 4.41657 2.54991 0
v 1.07767e-06 5.09981 0
v -4.41657 2.54991 0
v -4.41657 -2.54991 0
v 1.07767e-06 -5.09981 0


# Vertex Texture Coordinates :
vt 0.429937 0
vt 0.573249 0.248224
vt 0.429937 0.496448
vt 0.143312 0.496448
vt 0 0.248224
vt 0.143312 0
vt 0.143312 0.503552
vt 0 0.751776
vt 0.143312 1
vt 0.429937 1
vt 0.573249 0.751776
vt 0.429937 0.503552
vt 0.580246 1.6727e-05
vt 0.866871 1.6727e-05
vt 0.580246 0.104562
vt 0.866871 0.104562
vt 0.580246 0.209107
vt 0.866871 0.209107
vt 0.580316 0.313652
vt 0.866941 0.313652
vt 0.580316 0.503569
vt 0.866941 0.503569
vt 0.580246 0.608114
vt 0.866871 0.608114
vt 0.580246 0.0974244
vt 0.866871 0.0974244
vt 0.580246 0.20197
vt 0.866871 0.20197
vt 0.580246 0.306515
vt 0.866871 0.306515
vt 0.580316 0.41106
vt 0.866941 0.41106
vt 0.580316 0.600976
vt 0.866941 0.600976
vt 0.580246 0.705522
vt 0.866871 0.705522
vt 0.723559 0.0487206
vt 0.723559 0.153266
vt 0.723559 0.257811
vt 0.723629 0.362356
vt 0.723629 0.552273
vt 0.723559 0.656818


# Vertex Surface Normals: 
vn 0 0 1
vn 0 0 -1
vn 0.866025 -0.5 0
vn 0.866025 -0.5 5.66196e-17
vn 0.866025 -0.5 5.66196e-17
vn 0.866025 -0.5 -5.66196e-17
vn 0.866025 -0.5 -5.66196e-17
vn 0.866025 0.5 0
vn 0.866025 0.5 -5.66196e-17
vn 0.866025 0.5 -5.66196e-17
vn 0.866025 0.5 5.66196e-17
vn 0.866025 0.5 5.66196e-17
vn 0 1 0
vn 0 1 0
vn 0 1 0
vn 0 1 0
vn 0 1 0
vn -0.866025 0.5 0
vn -0.866025 0.5 0
vn -0.866025 0.5 0
vn -0.866025 0.5 0
vn -0.866025 0.5 0
vn -0.866025 -0.5 0
vn -0.866025 -0.5 0
vn -0.866025 -0.5 0
vn -0.866025 -0.5 0
vn -0.866025 -0.5 0
vn 0 -1 0
vn 0 -1 0
vn 0 -1 0
vn 0 -1 0
vn 0 -1 0


# Faces: 
usemtl material0
f 11/5/1 12/6/1 10/4/1
f 10/4/1 12/6/1 8/2/1
f 8/2/1 9/3/1 10/4/1
f 8/2/1 12/6/1 7/1/1
f 6/12/2 5/11/2 4/10/2
f 6/12/2 4/10/2 2/8/2
f 3/9/2 2/8/2 4/10/2
f 6/12/2 2/8/2 1/7/2
f 13/37/3 1/13/4 2/14/5
f 13/37/3 2/14/5 8/26/6
f 13/37/3 8/26/6 7/25/7
f 13/37/3 7/25/7 1/13/4
f 14/38/8 2/15/9 3/16/10
f 14/38/8 3/16/10 9/28/11
f 14/38/8 9/28/11 8/27/12
f 14/38/8 8/27/12 2/15/9
f 15/39/13 3/17/14 4/18/15
f 15/39/13 4/18/15 10/30/16
f 15/39/13 10/30/16 9/29/17
f 15/39/13 9/29/17 3/17/14
f 16/40/18 4/19/19 5/20/20
f 16/40/18 5/20/20 11/32/21
f 16/40/18 11/32/21 10/31/22
f 16/40/18 10/31/22 4/19/19
f 17/41/23 5/21/24 6/22/25
f 17/41/23 6/22/25 12/34/26
f 17/41/23 12/34/26 11/33/27
f 17/41/23 11/33/27 5/21/24
f 18/42/28 6/23/29 1/24/30
f 18/42/28 1/24/30 7/36/31
f 18/42/28 7/36/31 12/35/32
f 18/42/28 12/35/32 6/23/29
