{
  "accessors": [
    {
      "bufferView": 0,
      "componentType": 5126,
      "count": 21,
      "max": [
        0.43894997239112854,
        0.0,
        0.24960298836231232
      ],
      "min": [
        -0.4389509856700897,
        0.0,
        -0.2496030032634735
      ],
      "type": "VEC3"
    },
    {
      "bufferView": 1,
      "componentType": 5125,
      "count": 35,
      "type": "SCALAR"
    },
    {
      "bufferView": 2,
      "componentType": 5126,
      "count": 21,
      "type": "VEC3"
    },
    {
      "bufferView": 3,
      "componentType": 5126,
      "count": 21,
      "type": "VEC4"
    },
    {
      "bufferView": 4,
      "componentType": 5126,
      "count": 21,
      "type": "VEC2"
    },
    {
      "bufferView": 5,
      "componentType": 5126,
      "count": 4009,
      "max": [
        0.26450446248054504,
        0.04078281670808792,
        0.011346898041665554
      ],
      "min": [
        -0.7750449776649475,
        -0.8281030058860779,
        -0.033520299941301346
      ],
      "type": "VEC3"
    },
    {
      "bufferView": 6,
      "componentType": 5125,
      "count": 5724,
      "type": "SCALAR"
    },
    {
      "bufferView": 7,
      "componentType": 5126,
      "count": 4009,
      "type": "VEC3"
    },
    {
      "bufferView": 8,
      "componentType": 5126,
      "count": 4009,
      "type": "VEC4"
    },
    {
      "bufferView": 9,
      "componentType": 5126,
      "count": 4009,
      "type": "VEC2"
    }
  ],
  "asset": {
    "version": "2.0"
  },
  "bufferViews": [
    {
      "buffer": 0,
      "byteLength": 252,
      "target": 34962
    },
    {
      "buffer": 1,
      "byteLength": 140,
      "target": 34963
    },
    {
      "buffer": 2,
      "byteLength": 252,
      "target": 34962
    },
    {
      "buffer": 3,
      "byteLength": 336,
      "target": 34962
    },
    {
      "buffer": 4,
      "byteLength": 168,
      "target": 34962
    },
    {
      "buffer": 5,
      "byteLength": 48108,
      "target": 34962
    },
    {
      "buffer": 6,
      "byteLength": 22896,
      "target": 34963
    },
    {
      "buffer": 7,
      "byteLength": 48108,
      "target": 34962
    },
    {
      "buffer": 8,
      "byteLength": 64144,
      "target": 34962
    },
    {
      "buffer": 9,
      "byteLength": 32072,
      "target": 34962
    }
  ],
  "buffers": [
    {
      "byteLength": 252,
      "uri": "data:application/octet-stream;base64,"
    },
    {
      "byteLength": 140,
      "uri": "data:application/octet-stream;base64,"
    },
    {
      "byteLength": 252,
      "uri": "data:application/octet-stream;base64,"
    },
    {
      "byteLength": 336,
      "uri": "data:application/octet-stream;base64,"
    },
    {
      "byteLength": 168,
      "uri": "data:application/octet-stream;base64,"
    },
    {
      "byteLength": 48108,
      "uri": "data:application/octet-stream;base64,"
    },
    {
      "byteLength": 22896,
      "uri": "data:application/octet-stream;base64,"
    },
    {
      "byteLength": 48108,
      "uri": "data:application/octet-stream;base64,"
    },
    {
      "byteLength": 64144,
      "uri": "data:application/octet-stream;base64,"
    },
    {
      "byteLength": 32072,
      "uri": "data:application/octet-stream;base64,"
    }
  ],
  "materials": [
    {
      "doubleSided": true,
      "name": "Body",
      "normalTexture" : {
      "index" : 4,
      "scale" : 2
      },
      "emissiveFactor" : [1.0,1.0,1.0],
      "emissiveTexture" : {
      "index" : 2
      },
      "pbrMetallicRoughness": {
        "baseColorTexture" : {"index" : 1},
        "metallicFactor" : 0,
        "metallicRoughnessTexture" : { "index" : 0 },
        "baseColorFactor": [
          1.0,
          1.0,
          1.0,
          1.0
        ]
      }
    }
,   {
      "doubleSided": true,
      "name": "Display",
      "pbrMetallicRoughness": {
        "baseColorFactor": [
          1.0,
          1.0,
          1.0,
          1.0
        ]
      }
    }
  ],
  "images": [
    {
         "uri" : "0ab74de246214f4d9285820dfffc7299_R_panel_10_Body_Roughness.png"
    },
    {
         "uri" : "4ae621b1626046988126201efdc729ba_RGB_panel_10_Body_BaseColor.png"
    },
    {
         "uri" : "8e3e7967b0a549c7b919b9cdf3946dc8_RGB_panel_10_Body_Emissive.png"
    },
    {
         "uri" : "97094f157b9049109744a71d111cc7d9_R_panel_10_Body_Metallic.png"
    },
    {
         "uri" : "c5abcf06ab6b4ffd873bc36a5e291ef8_N_panel_10_Body_Normal.png"
    }
  ],
  "textures": [
    {
         "source" : 0
    },
    {
         "source" : 1
    },
    {
         "source" : 2
    },
    {
         "source" : 3
    },
    {
         "source" : 4
    }
  ],
  "meshes": [
    {
      "name": "Display_Display_0",
      "primitives": [
        {
          "attributes": {
            "NORMAL": 2,
            "POSITION": 0,
            "TANGENT": 3,
            "TEXCOORD_0": 4
          },
          "indices": 1,
          "material": 1,
          "mode": 5
        }
      ]
    },
    {
      "name": "Main_Body_0",
      "primitives": [
        {
          "attributes": {
            "NORMAL": 7,
            "POSITION": 5,
            "TANGENT": 8,
            "TEXCOORD_0": 9
          },
          "indices": 6,
          "material": 0,
          "mode": 5
        }
      ]
    }
  ],
  "nodes": [
    {
      "mesh": 0,
      "name": "Display_Display_0"
    },
    {
      "children": [
        0
      ],
      "name": "Display",
      "rotation": [
        -0.7071068387877001,
        0.0,
        0.0,
        0.7071067235853903
      ],
      "scale": [
        58.374298095703125,
        58.374298095703125,
        58.374298095703125
      ],
      "translation": [
        0.7783089876174927,
        15.879899978637695,
        -0.33155199885368347
      ]
    },
    {
      "mesh": 1,
      "name": "Main_Body_0"
    },
    {
      "children": [
        2
      ],
      "name": "Main",
      "rotation": [
        -1.9491447212939936e-07,
        -6.264143128495244e-08,
        0.9772644629766118,
        0.21202398308444378
      ],
      "scale": [
        58.72463607788086,
        58.72463607788086,
        58.724700927734375
      ],
      "translation": [
        -22.554899215698242,
        0.5348250269889832,
        0.5462329983711243
      ]
    },
    {
      "children": [
        1,
        3
      ],
      "name": "RootNode"
    },
    {
      "children": [
        4
      ],
      "name": "c4553b6c8ec14db1a8bb5b86e698445b.fbx",
      "rotation": [
        1.1102230246251565e-16,
        0.0,
        0.0,
        1.0
      ],
      "scale": [
        0.009999999776482582,
        0.009999999776482582,
        0.009999999776482582
      ],
      "translation": [
        0.0,
        0.0,
        0.0
      ]
    }
  ],
  "scene": 0,
  "scenes": [
    {
      "nodes": [
        5
      ]
    }
  ]
}
