{
  "accessors": [
    {
      "bufferView": 2,
      "componentType": 5126,
      "count": 4,
      "max": [
        0.30612245202064514,
        0.5,
        0.0
      ],
      "min": [
        -0.30612245202064514,
        -0.5,
        0.0
      ],
      "type": "VEC3"
    },
    {
      "bufferView": 2,
      "byteOffset": 48,
      "componentType": 5126,
      "count": 4,
      "max": [
        0.0,
        0.0,
        1.0
      ],
      "min": [
        0.0,
        0.0,
        1.0
      ],
      "type": "VEC3"
    },
    {
      "bufferView": 1,
      "componentType": 5126,
      "count": 4,
      "max": [
        1.0,
        1.0
      ],
      "min": [
        0.0,
        0.0
      ],
      "type": "VEC2"
    },
    {
      "bufferView": 1,
      "byteOffset": 32,
      "componentType": 5126,
      "count": 4,
      "max": [
        0.0,
        0.0
      ],
      "min": [
        0.0,
        0.0
      ],
      "type": "VEC2"
    },
    {
      "bufferView": 1,
      "byteOffset": 64,
      "componentType": 5126,
      "count": 4,
      "max": [
        1.0,
        1.0
      ],
      "min": [
        0.0,
        0.0
      ],
      "type": "VEC2"
    },
    {
      "bufferView": 0,
      "componentType": 5125,
      "count": 6,
      "type": "SCALAR"
    },
    {
      "bufferView": 2,
      "byteOffset": 96,
      "componentType": 5126,
      "count": 544,
      "max": [
        0.31084144115448,
        0.52021324634552,
        0.029006825760006905
      ],
      "min": [
        -0.32418495416641235,
        -0.52021324634552,
        -0.06378600746393204
      ],
      "type": "VEC3"
    },
    {
      "bufferView": 2,
      "byteOffset": 6624,
      "componentType": 5126,
      "count": 544,
      "max": [
        0.9999819397926331,
        1.0,
        0.9999896883964539
      ],
      "min": [
        -0.9999819397926331,
        -1.0,
        -0.9999896883964539
      ],
      "type": "VEC3"
    },
    {
      "bufferView": 1,
      "byteOffset": 96,
      "componentType": 5126,
      "count": 544,
      "max": [
        0.7328358888626099,
        0.9770857095718384
      ],
      "min": [
        0.01720750331878662,
        0.022914379835128784
      ],
      "type": "VEC2"
    },
    {
      "bufferView": 1,
      "byteOffset": 4448,
      "componentType": 5126,
      "count": 544,
      "max": [
        0.7328358888626099,
        0.9770857095718384
      ],
      "min": [
        0.01720750331878662,
        0.022914379835128784
      ],
      "type": "VEC2"
    },
    {
      "bufferView": 1,
      "byteOffset": 8800,
      "componentType": 5126,
      "count": 544,
      "max": [
        0.507792592048645,
        0.9998297691345215
      ],
      "min": [
        0.00017020851373672485,
        0.00017020106315612793
      ],
      "type": "VEC2"
    },
    {
      "bufferView": 1,
      "byteOffset": 13152,
      "componentType": 5126,
      "count": 544,
      "max": [
        0.7328358888626099,
        0.9770857095718384
      ],
      "min": [
        0.01720750331878662,
        0.022914379835128784
      ],
      "type": "VEC2"
    },
    {
      "bufferView": 0,
      "byteOffset": 24,
      "componentType": 5125,
      "count": 882,
      "type": "SCALAR"
    }
  ],
  "asset": {
    "extras": {
      "author": "RenderX (https://sketchfab.com/RenderX)",
      "license": "CC-BY-4.0 (http://creativecommons.org/licenses/by/4.0/)",
      "source": "https://sketchfab.com/3d-models/advert1-e521bca2385e46a0822920fc719c62c6",
      "title": "ADVERT1"
    },
    "generator": "Sketchfab-15.18.0",
    "version": "2.0"
  },
  "bufferViews": [
    {
      "buffer": 0,
      "byteLength": 3552,
      "name": "floatBufferViews",
      "target": 34963
    },
    {
      "buffer": 0,
      "byteLength": 17504,
      "byteOffset": 3552,
      "byteStride": 8,
      "name": "floatBufferViews",
      "target": 34962
    },
    {
      "buffer": 0,
      "byteLength": 13152,
      "byteOffset": 21056,
      "byteStride": 12,
      "name": "floatBufferViews",
      "target": 34962
    }
  ],
  "buffers": [
    {
      "byteLength": 34208,
      "uri": "scene.bin"
    }
  ],
  "extensionsUsed": [
    "KHR_materials_unlit"
  ],
  "images": [
    {
      "uri": "textures/dream_TradingCard_12.001_baseColor.jpeg"
    },
    {
      "uri": "textures/Metal_Steel_Weathered_Triangle_baseColor.png"
    },
    {
      "uri": "textures/Metal_Steel_Weathered_Triangle_emissive.png"
    }
  ],
  "materials": [
    {
      "doubleSided": true,
      "emissiveFactor": [
        1.0,
        1.0,
        1.0
      ],
      "emissiveTexture": {
        "index": 0
      },
      "extensions": {
        "KHR_materials_unlit": {}
      },
      "name": "dream_TradingCard_12.001",
      "pbrMetallicRoughness": {
        "baseColorTexture": {
          "index": 0
        },
        "metallicFactor": 0.0
      }
    },
    {
      "alphaMode": "BLEND",
      "doubleSided": true,
      "emissiveFactor": [
        1.0,
        1.0,
        1.0
      ],
      "emissiveTexture": {
        "index": 2,
        "texCoord": 1
      },
      "extensions": {
        "KHR_materials_unlit": {}
      },
      "name": "Metal_Steel_Weathered_Triangle",
      "pbrMetallicRoughness": {
        "baseColorTexture": {
          "index": 1
        },
        "metallicFactor": 0.0
      }
    }
  ],
  "meshes": [
    {
      "name": "ADVERT1_dream_TradingCard (12).001_0",
      "primitives": [
        {
          "attributes": {
            "NORMAL": 1,
            "POSITION": 0,
            "TEXCOORD_0": 2,
            "TEXCOORD_1": 3,
            "TEXCOORD_2": 4
          },
          "indices": 5,
          "material": 0,
          "mode": 4
        }
      ]
    },
    {
      "name": "ADVERT1_Metal Steel Weathered Triangle_0",
      "primitives": [
        {
          "attributes": {
            "NORMAL": 7,
            "POSITION": 6,
            "TEXCOORD_0": 8,
            "TEXCOORD_1": 9,
            "TEXCOORD_2": 10,
            "TEXCOORD_3": 11
          },
          "indices": 12,
          "material": 1,
          "mode": 4
        }
      ]
    }
  ],
  "nodes": [
    {
      "children": [
        1
      ],
      "matrix": [
        1.0,
        0.0,
        0.0,
        0.0,
        0.0,
        2.220446049250313e-16,
        -1.0,
        0.0,
        0.0,
        1.0,
        2.220446049250313e-16,
        0.0,
        0.0,
        0.0,
        0.0,
        1.0
      ],
      "name": "Sketchfab_model"
    },
    {
      "children": [
        2
      ],
      "matrix": [
        0.009999999776482582,
        0.0,
        0.0,
        0.0,
        0.0,
        0.0,
        0.009999999776482582,
        0.0,
        0.0,
        -0.009999999776482582,
        0.0,
        0.0,
        0.0,
        0.0,
        0.0,
        1.0
      ],
      "name": "5d1a2e66a9a44da7b2e76c64d4f260de.fbx"
    },
    {
      "children": [
        3
      ],
      "name": "RootNode"
    },
    {
      "children": [
        4,
        5
      ],
      "matrix": [
        869.333251953125,
        0.0,
        0.0,
        0.0,
        0.0,
        869.3332519531241,
        3.799976332669562e-05,
        0.0,
        0.0,
        -4.371138828673793e-05,
        999.999999999999,
        0.0,
        24.90081787109375,
        163.98741149902344,
        30.32989501953125,
        1.0
      ],
      "name": "ADVERT1"
    },
    {
      "mesh": 0,
      "name": "ADVERT1_dream_TradingCard (12).001_0"
    },
    {
      "mesh": 1,
      "name": "ADVERT1_Metal Steel Weathered Triangle_0"
    }
  ],
  "samplers": [
    {
      "magFilter": 9729,
      "minFilter": 9987,
      "wrapS": 33071,
      "wrapT": 33071
    },
    {
      "magFilter": 9729,
      "minFilter": 9987,
      "wrapS": 10497,
      "wrapT": 10497
    }
  ],
  "scene": 0,
  "scenes": [
    {
      "name": "Sketchfab_Scene",
      "nodes": [
        0
      ]
    }
  ],
  "textures": [
    {
      "sampler": 0,
      "source": 0
    },
    {
      "sampler": 1,
      "source": 1
    },
    {
      "sampler": 1,
      "source": 2
    }
  ]
}
